<svg xmlns="http://www.w3.org/2000/svg" width="169.901" height="46.498" viewBox="0 0 169.901 46.498">
  <path id="Path_5177" data-name="Path 5177" d="M8.974-10.249v5.012a4.72,4.72,0,0,0,.251,1.8,1.348,1.348,0,0,0,.914.752,8.322,8.322,0,0,0,2.108.192v.678q-3.98-.088-6.073-.088-1.386,0-3.862.059L.9-1.817v-.59a4.631,4.631,0,0,0,1.371-.236.985.985,0,0,0,.575-.678,6.337,6.337,0,0,0,.147-1.622V-19.566a5.784,5.784,0,0,0-.162-1.622,1.034,1.034,0,0,0-.575-.678A4.45,4.45,0,0,0,.9-22.1v-.59q1.681.088,5.071.088l3.391-.029q.59-.029,1.356-.029,4.363,0,6.619,1.577a4.915,4.915,0,0,1,2.255,4.231,6,6,0,0,1-.884,3.11A6.651,6.651,0,0,1,15.7-11.252a13.315,13.315,0,0,1-5.631,1ZM10.566-22.1a1.993,1.993,0,0,0-1.017.206,1.085,1.085,0,0,0-.457.737,7.931,7.931,0,0,0-.118,1.592v8.727h.8a2.9,2.9,0,0,0,2.845-1.533,9.242,9.242,0,0,0,.781-4.157,10.3,10.3,0,0,0-.649-4.216A2.241,2.241,0,0,0,10.566-22.1Zm24.648-1a12.77,12.77,0,0,1,5.838,1.268,9.174,9.174,0,0,1,3.892,3.671,11.289,11.289,0,0,1,1.386,5.734,11.489,11.489,0,0,1-1.415,5.749A9.9,9.9,0,0,1,40.963-2.79,11.852,11.852,0,0,1,35.185-1.4a12.77,12.77,0,0,1-5.838-1.268,9.174,9.174,0,0,1-3.892-3.671,11.289,11.289,0,0,1-1.386-5.734,11.489,11.489,0,0,1,1.415-5.749,9.9,9.9,0,0,1,3.951-3.892A11.852,11.852,0,0,1,35.214-23.1Zm-.118.531a3.269,3.269,0,0,0-2.55,1.312,9.05,9.05,0,0,0-1.7,3.671,22.334,22.334,0,0,0-.59,5.4,19.361,19.361,0,0,0,.678,5.4,9.07,9.07,0,0,0,1.828,3.6A3.385,3.385,0,0,0,35.3-1.935a3.269,3.269,0,0,0,2.55-1.312,9.05,9.05,0,0,0,1.7-3.671,22.335,22.335,0,0,0,.59-5.4,19.361,19.361,0,0,0-.678-5.4,9.07,9.07,0,0,0-1.828-3.6A3.385,3.385,0,0,0,35.1-22.573ZM71.006-4.205a6.238,6.238,0,0,0,.8,1.076,3.872,3.872,0,0,0,1,.722v.59q-2.477-.088-5.307-.088-2.182,0-4.216.088v-.59a7.3,7.3,0,0,0,1.312-.162q.369-.1.369-.4a1.578,1.578,0,0,0-.295-.767l-4.275-7.223a4.663,4.663,0,0,0-.693-.973,1.233,1.233,0,0,0-.693-.324v7.312a5.784,5.784,0,0,0,.162,1.622,1.034,1.034,0,0,0,.575.678,4.45,4.45,0,0,0,1.356.236v.59q-1.71-.088-4.924-.088-3.567,0-5.248.088v-.59A4.631,4.631,0,0,0,52.3-2.643a.985.985,0,0,0,.575-.678,6.337,6.337,0,0,0,.147-1.622V-19.566a5.784,5.784,0,0,0-.162-1.622,1.034,1.034,0,0,0-.575-.678,4.45,4.45,0,0,0-1.356-.236v-.59q1.681.088,5.248.088,3.184,0,4.924-.088v.59a4.631,4.631,0,0,0-1.371.236.985.985,0,0,0-.575.678,6.337,6.337,0,0,0-.147,1.622V-12.9a4.532,4.532,0,0,0,2.3-.884,17.74,17.74,0,0,0,2.742-2.624l1-1.12a4.261,4.261,0,0,0,1.3-2.653,1.638,1.638,0,0,0-.678-1.371,3.087,3.087,0,0,0-1.739-.575v-.56q2.477.088,4.983.088,1.8,0,2.978-.088v.56a9.961,9.961,0,0,0-4.835,3.243l-2.889,3.273ZM98.9-22.1a4.63,4.63,0,0,0-1.371.236.985.985,0,0,0-.575.678,6.337,6.337,0,0,0-.147,1.622V-4.942a5.784,5.784,0,0,0,.162,1.622,1.034,1.034,0,0,0,.575.678,4.45,4.45,0,0,0,1.356.236v.59q-1.592-.088-4.953-.088-3.391,0-5.218.088v-.59A4.631,4.631,0,0,0,90.1-2.643a.985.985,0,0,0,.575-.678,6.337,6.337,0,0,0,.147-1.622v-7.076H84.185v7.076a5.784,5.784,0,0,0,.162,1.622,1.034,1.034,0,0,0,.575.678,4.45,4.45,0,0,0,1.356.236v.59q-1.71-.088-4.924-.088-3.567,0-5.248.088v-.59a4.631,4.631,0,0,0,1.371-.236.985.985,0,0,0,.575-.678A6.337,6.337,0,0,0,78.2-4.942V-19.566a5.784,5.784,0,0,0-.162-1.622,1.034,1.034,0,0,0-.575-.678,4.45,4.45,0,0,0-1.356-.236v-.59q1.681.088,5.248.088,3.184,0,4.924-.088v.59a4.631,4.631,0,0,0-1.371.236.985.985,0,0,0-.575.678,6.338,6.338,0,0,0-.147,1.622v6.958h6.634v-6.958a5.784,5.784,0,0,0-.162-1.622,1.034,1.034,0,0,0-.575-.678,4.45,4.45,0,0,0-1.356-.236v-.59q1.828.088,5.218.088,3.361,0,4.953-.088ZM121.54-4.294a4.237,4.237,0,0,0,.84,1.4,1.448,1.448,0,0,0,.9.486v.59q-2.123-.088-5.366-.088-3.361,0-4.953.088v-.59a4.667,4.667,0,0,0,1.592-.28.791.791,0,0,0,.472-.781,4.077,4.077,0,0,0-.354-1.415l-1.739-4.835h-5.956l-.5,1.327a11.7,11.7,0,0,0-.973,3.833,1.825,1.825,0,0,0,.678,1.651,4.036,4.036,0,0,0,2,.5v.59q-2.211-.088-3.862-.088-1.386,0-2.27.088v-.59a2.3,2.3,0,0,0,1.386-.914,9.79,9.79,0,0,0,1.327-2.536l6.545-16.835q.943.059,1.563.059.59,0,1.533-.059Zm-8.815-6.015-2.683-7.371-2.83,7.371ZM147.426-3a4.965,4.965,0,0,1-1.946,1.238A7.84,7.84,0,0,1,143-1.4a5.81,5.81,0,0,1-3.155-.722,3.343,3.343,0,0,1-1.386-2.462l-.442-2.948a11.026,11.026,0,0,0-.811-3.125,1.652,1.652,0,0,0-1.548-1.061h-1.327v6.781a5.784,5.784,0,0,0,.162,1.622,1.034,1.034,0,0,0,.575.678,4.45,4.45,0,0,0,1.356.236v.59q-1.71-.088-4.924-.088-3.567,0-5.248.088v-.59a4.631,4.631,0,0,0,1.371-.236.985.985,0,0,0,.575-.678,6.337,6.337,0,0,0,.147-1.622V-19.566a5.784,5.784,0,0,0-.162-1.622,1.034,1.034,0,0,0-.575-.678,4.45,4.45,0,0,0-1.356-.236v-.59q1.681.088,5.071.088l3.391-.029q.59-.029,1.356-.029,4.481,0,6.678,1.268a4.168,4.168,0,0,1,2.2,3.862,5.007,5.007,0,0,1-1.651,3.774q-1.651,1.563-5.543,1.916a10.3,10.3,0,0,1,4.54,1.135,3.937,3.937,0,0,1,1.887,2.727l.619,3.066a4.092,4.092,0,0,0,.5,1.5.957.957,0,0,0,.826.413,1.248,1.248,0,0,0,.914-.383Zm-11.5-19.1a1.993,1.993,0,0,0-1.017.206,1.085,1.085,0,0,0-.457.737,7.93,7.93,0,0,0-.118,1.592v7.253h.8a3.052,3.052,0,0,0,2.86-1.283,7.075,7.075,0,0,0,.767-3.612,7.951,7.951,0,0,0-.663-3.656A2.273,2.273,0,0,0,135.928-22.1ZM168.507-4.294a4.237,4.237,0,0,0,.84,1.4,1.448,1.448,0,0,0,.9.486v.59q-2.123-.088-5.366-.088-3.361,0-4.953.088v-.59a4.667,4.667,0,0,0,1.592-.28.791.791,0,0,0,.472-.781,4.078,4.078,0,0,0-.354-1.415L159.9-9.719h-5.956l-.5,1.327a11.7,11.7,0,0,0-.973,3.833,1.825,1.825,0,0,0,.678,1.651,4.036,4.036,0,0,0,2,.5v.59q-2.211-.088-3.862-.088-1.386,0-2.27.088v-.59a2.3,2.3,0,0,0,1.386-.914,9.791,9.791,0,0,0,1.327-2.536l6.545-16.835q.943.059,1.563.059.59,0,1.533-.059Zm-8.815-6.015-2.683-7.371-2.83,7.371ZM19.929,6.578a4.772,4.772,0,0,0-1.258.192.861.861,0,0,0-.539.551,4.326,4.326,0,0,0-.144,1.318V20.52a4.326,4.326,0,0,0,.144,1.318.861.861,0,0,0,.539.551,4.772,4.772,0,0,0,1.258.192v.479q-1.1-.072-3.042-.072-2.06,0-3.066.072V22.58a4.772,4.772,0,0,0,1.258-.192.861.861,0,0,0,.539-.551,4.326,4.326,0,0,0,.144-1.318V7.68l-5.773,15.5H9.6L3.568,7.632V20.28a4.6,4.6,0,0,0,.156,1.389,1.082,1.082,0,0,0,.611.659,4.186,4.186,0,0,0,1.413.252v.479q-.862-.072-2.443-.072-1.437,0-2.228.072V22.58a3.344,3.344,0,0,0,1.246-.252,1.062,1.062,0,0,0,.551-.671,4.98,4.98,0,0,0,.144-1.377V8.638a4.326,4.326,0,0,0-.144-1.318.861.861,0,0,0-.539-.551,4.772,4.772,0,0,0-1.258-.192V6.1q.791.072,2.228.072,1.246,0,2.036-.072l5.27,13.87,5.15-13.8h1.126q1.94,0,3.042-.072Zm17.176,0a3.344,3.344,0,0,0-1.246.252,1.062,1.062,0,0,0-.551.671,4.98,4.98,0,0,0-.144,1.377v7.21a16.567,16.567,0,0,1-.228,2.958,6.386,6.386,0,0,1-.755,2.12A4.2,4.2,0,0,1,32.422,22.8a5.641,5.641,0,0,1-2.623.6A5.7,5.7,0,0,1,25.774,22.1a4.869,4.869,0,0,1-1.413-2.228A14.333,14.333,0,0,1,24,16.16V8.638a4.326,4.326,0,0,0-.144-1.318.861.861,0,0,0-.539-.551,4.772,4.772,0,0,0-1.258-.192V6.1q1.006.072,3.066.072,1.94,0,3.042-.072v.479a4.772,4.772,0,0,0-1.258.192.861.861,0,0,0-.539.551,4.326,4.326,0,0,0-.144,1.318v7.929a16.062,16.062,0,0,0,.264,3.186,3.721,3.721,0,0,0,1.09,2.036,3.456,3.456,0,0,0,2.431.767,3.889,3.889,0,0,0,3.569-1.629,8.555,8.555,0,0,0,1.03-4.575V8.878A2.552,2.552,0,0,0,34.146,7.1a2.515,2.515,0,0,0-1.713-.527V6.1q.862.072,2.443.072,1.437,0,2.228-.072Zm17.176,0a3.344,3.344,0,0,0-1.246.252,1.062,1.062,0,0,0-.551.671,4.98,4.98,0,0,0-.144,1.377v14.3h-.551L41.728,7.632V20.28a4.6,4.6,0,0,0,.156,1.389,1.082,1.082,0,0,0,.611.659,4.186,4.186,0,0,0,1.413.252v.479q-.862-.072-2.443-.072-1.437,0-2.228.072V22.58a3.344,3.344,0,0,0,1.246-.252,1.062,1.062,0,0,0,.551-.671,4.98,4.98,0,0,0,.144-1.377V8.638a4.326,4.326,0,0,0-.144-1.318.861.861,0,0,0-.539-.551,4.772,4.772,0,0,0-1.258-.192V6.1q.791.072,2.228.072,1.078,0,1.868-.072L51.789,19.13V8.878a4.6,4.6,0,0,0-.156-1.389,1.082,1.082,0,0,0-.611-.659,4.186,4.186,0,0,0-1.413-.252V6.1q.862.072,2.443.072,1.437,0,2.228-.072Zm8.456,0a4.772,4.772,0,0,0-1.258.192.861.861,0,0,0-.539.551A4.326,4.326,0,0,0,60.8,8.638V20.52a4.326,4.326,0,0,0,.144,1.318.861.861,0,0,0,.539.551,4.772,4.772,0,0,0,1.258.192v.479q-1.1-.072-3.042-.072-2.06,0-3.066.072V22.58a4.772,4.772,0,0,0,1.258-.192.861.861,0,0,0,.539-.551,4.326,4.326,0,0,0,.144-1.318V8.638a4.326,4.326,0,0,0-.144-1.318.861.861,0,0,0-.539-.551,4.772,4.772,0,0,0-1.258-.192V6.1q1.006.072,3.066.072,1.916,0,3.042-.072Zm10.181-.814a6.518,6.518,0,0,1,2.443.407,8.292,8.292,0,0,1,1.964,1.15.776.776,0,0,0,.455.216q.479,0,.623-1.437h.551q-.1,1.557-.1,5.51h-.551a18.613,18.613,0,0,0-.479-2.24,3.988,3.988,0,0,0-.719-1.306,4.43,4.43,0,0,0-1.833-1.4,6.162,6.162,0,0,0-2.407-.467,3.969,3.969,0,0,0-2.719,1.03,6.7,6.7,0,0,0-1.809,2.934,13.911,13.911,0,0,0-.647,4.468,12.878,12.878,0,0,0,.695,4.48,6.288,6.288,0,0,0,1.928,2.839,4.4,4.4,0,0,0,2.791.97,6.145,6.145,0,0,0,2.324-.455,3.914,3.914,0,0,0,1.773-1.365,4.6,4.6,0,0,0,.695-1.437,16.967,16.967,0,0,0,.407-2.348h.551q0,4.12.1,5.749H78.4a4.241,4.241,0,0,0-.2-1.09q-.132-.323-.371-.323a1.05,1.05,0,0,0-.5.192A10.124,10.124,0,0,1,75.265,23a6.353,6.353,0,0,1-2.372.4,7.589,7.589,0,0,1-3.988-1.03,6.876,6.876,0,0,1-2.659-2.982,10.59,10.59,0,0,1-.946-4.659,10.736,10.736,0,0,1,.97-4.671,7.52,7.52,0,0,1,2.707-3.162A7.085,7.085,0,0,1,72.917,5.763ZM88.1,6.578a4.772,4.772,0,0,0-1.258.192.861.861,0,0,0-.539.551,4.326,4.326,0,0,0-.144,1.318V20.52a4.326,4.326,0,0,0,.144,1.318.861.861,0,0,0,.539.551,4.772,4.772,0,0,0,1.258.192v.479q-1.1-.072-3.042-.072-2.06,0-3.066.072V22.58a4.772,4.772,0,0,0,1.258-.192.861.861,0,0,0,.539-.551,4.326,4.326,0,0,0,.144-1.318V8.638a4.326,4.326,0,0,0-.144-1.318.861.861,0,0,0-.539-.551A4.772,4.772,0,0,0,82,6.578V6.1q1.006.072,3.066.072,1.916,0,3.042-.072Zm6.659,9.63V20.52a3.311,3.311,0,0,0,.192,1.318,1.023,1.023,0,0,0,.671.551,7.084,7.084,0,0,0,1.557.192v.479q-1.246-.072-3.521-.072-2.06,0-3.066.072V22.58a4.772,4.772,0,0,0,1.258-.192.861.861,0,0,0,.539-.551,4.326,4.326,0,0,0,.144-1.318V8.638a4.326,4.326,0,0,0-.144-1.318.861.861,0,0,0-.539-.551A4.772,4.772,0,0,0,90.6,6.578V6.1q1.006.072,2.922.072l2.587-.024q.455-.024,1.03-.024A6.381,6.381,0,0,1,101.424,7.4a4.31,4.31,0,0,1,1.485,3.438,5.721,5.721,0,0,1-.587,2.527,4.787,4.787,0,0,1-1.988,2.024,7.383,7.383,0,0,1-3.725.814Zm1.773-9.63a2.832,2.832,0,0,0-1.114.168.948.948,0,0,0-.515.6,4.36,4.36,0,0,0-.144,1.294v7.091h1.6a3.731,3.731,0,0,0,3.246-1.258,5.678,5.678,0,0,0,.9-3.366,5.273,5.273,0,0,0-.922-3.426A3.778,3.778,0,0,0,96.537,6.578Zm20.146,14.469q.575,1.485,1.653,1.533v.479q-.958-.072-2.563-.072-2.06,0-3.066.072V22.58a3.918,3.918,0,0,0,1.306-.228.66.66,0,0,0,.4-.659,3.291,3.291,0,0,0-.287-1.126l-1.461-3.929h-5.8l-.982,2.539a6.27,6.27,0,0,0-.479,1.964,1.191,1.191,0,0,0,.515,1.078,3.05,3.05,0,0,0,1.569.359v.479q-1.365-.072-2.755-.072-1.078,0-1.8.072V22.58q1.2-.287,1.892-2.084l5.629-14.517h.383Zm-4.216-4.887L109.784,9l-2.731,7.163Zm12.84-9.582a4.772,4.772,0,0,0-1.258.192.861.861,0,0,0-.539.551,4.326,4.326,0,0,0-.144,1.318V20.52a4.326,4.326,0,0,0,.144,1.318.826.826,0,0,0,.539.539,4.332,4.332,0,0,0,1.258.132h1.749a4.881,4.881,0,0,0,2.264-.419,2.475,2.475,0,0,0,1.138-1.353,10.74,10.74,0,0,0,.527-2.707h.551q-.072.743-.072,1.964,0,1.365.168,3.066-1.629-.072-5.486-.072-4.6,0-6.947.072V22.58a4.772,4.772,0,0,0,1.258-.192.861.861,0,0,0,.539-.551,4.326,4.326,0,0,0,.144-1.318V8.638a4.326,4.326,0,0,0-.144-1.318.861.861,0,0,0-.539-.551,4.772,4.772,0,0,0-1.258-.192V6.1q1.006.072,3.066.072,1.916,0,3.042-.072Zm14.565,0a4.772,4.772,0,0,0-1.258.192.861.861,0,0,0-.539.551,4.326,4.326,0,0,0-.144,1.318V20.52a4.326,4.326,0,0,0,.144,1.318.861.861,0,0,0,.539.551,4.772,4.772,0,0,0,1.258.192v.479q-1.1-.072-3.042-.072-2.06,0-3.066.072V22.58a4.772,4.772,0,0,0,1.258-.192.861.861,0,0,0,.539-.551,4.327,4.327,0,0,0,.144-1.318V8.638a4.327,4.327,0,0,0-.144-1.318.861.861,0,0,0-.539-.551,4.772,4.772,0,0,0-1.258-.192V6.1q1.006.072,3.066.072,1.916,0,3.042-.072ZM155.538,6.1q-.168,1.7-.168,3.066,0,1.2.072,1.964h-.551a14.7,14.7,0,0,0-.479-2.743,2.246,2.246,0,0,0-1.006-1.318,4.5,4.5,0,0,0-2.2-.419h-1.294V20.28a4.056,4.056,0,0,0,.192,1.461,1.082,1.082,0,0,0,.671.623,5.973,5.973,0,0,0,1.557.216v.479q-1.246-.072-3.521-.072-2.4,0-3.545.072V22.58a5.973,5.973,0,0,0,1.557-.216,1.082,1.082,0,0,0,.671-.623,4.055,4.055,0,0,0,.192-1.461V6.65h-1.294a4.5,4.5,0,0,0-2.2.419,2.246,2.246,0,0,0-1.006,1.318,14.7,14.7,0,0,0-.479,2.743h-.551q.072-.767.072-1.964,0-1.365-.168-3.066,1.988.072,6.755.072Q153.55,6.171,155.538,6.1ZM169,6.171q1.078,0,1.8-.072v.479a1.952,1.952,0,0,0-.934.611,6.966,6.966,0,0,0-.982,1.521l-3.761,7.45v4.36a4.327,4.327,0,0,0,.144,1.318.861.861,0,0,0,.539.551,4.772,4.772,0,0,0,1.258.192v.479q-1.1-.072-3.042-.072-2.06,0-3.066.072V22.58a4.772,4.772,0,0,0,1.258-.192.861.861,0,0,0,.539-.551,4.326,4.326,0,0,0,.144-1.318V16.926l-4.863-8.983a3.958,3.958,0,0,0-.755-1.066.99.99,0,0,0-.635-.275V6.1q.934.072,2.108.072,2.324,0,3.354-.072v.5q-1.677,0-1.677.91a1.93,1.93,0,0,0,.24.838l3.977,7.642,3.066-6.085a4.873,4.873,0,0,0,.647-2.06,1,1,0,0,0-.527-.958,3.574,3.574,0,0,0-1.581-.311V6.1Q167.611,6.171,169,6.171Z" transform="translate(-0.896 23.104)" fill="#fff"/>
</svg>
